<?xml version="1.0" standalone="no"?>
<!DOCTYPE svg PUBLIC "-//W3C//DTD SVG 20010904//EN"
 "http://www.w3.org/TR/2001/REC-SVG-20010904/DTD/svg10.dtd">
<svg version="1.0" xmlns="http://www.w3.org/2000/svg"
 width="640.000000pt" height="1280.000000pt" viewBox="0 0 640.000000 1280.000000"
 preserveAspectRatio="xMidYMid meet">
<metadata>
Created by potrace 1.15, written by Peter Selinger 2001-2017
</metadata>
<g transform="translate(0.000000,1280.000000) scale(0.100000,-0.100000)"
fill="#000000" stroke="none">
<path d="M3669 12776 c-25 -13 -54 -28 -64 -34 -11 -6 -45 -16 -75 -22 -66
-13 -120 -43 -120 -67 0 -10 9 -32 20 -50 l19 -32 -42 -12 c-33 -9 -56 -8
-115 5 -91 20 -151 20 -179 1 -30 -21 -40 -78 -19 -110 23 -35 67 -32 161 11
85 39 158 64 192 64 16 0 25 -11 38 -44 15 -39 15 -46 2 -73 -21 -40 -42 -55
-85 -62 -33 -6 -37 -10 -40 -39 -4 -37 -6 -37 -55 -17 -46 19 -115 19 -160 0
-83 -34 -174 -181 -184 -295 -10 -105 34 -118 144 -44 135 91 220 123 250 93
8 -8 7 -18 -5 -38 -39 -68 27 -84 81 -20 36 44 57 45 57 5 0 -36 -48 -72 -115
-85 -167 -32 -305 -152 -322 -280 -4 -26 0 -41 10 -50 13 -10 25 -4 77 44 98
90 196 125 264 94 18 -9 25 -21 28 -50 3 -37 2 -39 -23 -39 -22 0 -35 -12 -72
-69 -42 -62 -50 -69 -94 -80 -121 -31 -233 -121 -233 -189 0 -33 1 -34 30 -28
17 3 76 35 132 71 98 63 104 65 165 65 35 0 63 -4 63 -9 0 -35 -25 -71 -57
-82 -19 -6 -49 -24 -68 -40 -23 -20 -54 -33 -104 -44 -113 -24 -166 -57 -202
-127 -22 -42 -25 -98 -7 -116 31 -31 119 -6 233 68 74 47 111 60 102 35 -4 -9
-7 -18 -7 -20 0 -2 -20 -13 -45 -24 -25 -11 -71 -38 -103 -60 -31 -22 -99 -59
-151 -81 -116 -49 -141 -71 -141 -121 0 -30 7 -43 32 -64 28 -24 39 -27 88
-23 45 3 72 14 135 51 81 48 118 56 193 41 52 -10 29 -33 -31 -31 -45 2 -70
-6 -182 -60 -179 -85 -196 -89 -279 -69 -124 32 -287 -6 -359 -81 -71 -76 -44
-183 47 -183 79 0 215 54 314 124 96 68 240 122 264 98 12 -12 -126 -106 -216
-148 -206 -95 -428 -148 -464 -112 -21 21 -45 -15 -50 -75 -7 -93 21 -116 97
-77 89 45 307 84 346 62 15 -8 11 -11 -21 -16 -49 -10 -101 -41 -109 -67 -4
-11 -4 -37 0 -59 13 -76 -14 -100 -115 -100 -32 0 -71 -5 -87 -11 -15 -6 -70
-15 -121 -20 -106 -9 -143 -23 -156 -60 -21 -60 24 -149 76 -149 13 0 56 16
97 35 40 19 75 35 79 35 3 0 -6 -13 -21 -28 -48 -50 -54 -117 -14 -150 8 -7
32 -18 53 -26 21 -8 31 -15 22 -15 -44 -2 -150 -56 -207 -105 -33 -29 -83 -63
-110 -76 -39 -18 -53 -31 -65 -61 -37 -91 -29 -159 18 -159 27 0 93 46 125 85
12 16 22 26 24 24 60 -104 87 -164 87 -199 0 -47 -16 -66 -67 -79 -116 -31
-292 -233 -293 -337 0 -36 26 -64 59 -64 17 0 22 -4 17 -16 -37 -96 -79 -297
-69 -332 3 -13 -5 -33 -20 -54 -65 -87 -76 -164 -31 -217 54 -64 121 -30 153
77 21 70 45 112 63 112 18 0 2 -174 -25 -280 -23 -88 -29 -99 -80 -151 -123
-126 -153 -359 -46 -359 34 0 84 55 99 108 15 56 50 103 95 129 59 33 70 18
70 -100 0 -113 -25 -201 -64 -225 -14 -8 -37 -26 -51 -38 -14 -12 -34 -24 -45
-26 -16 -3 -20 -12 -21 -48 0 -25 -11 -83 -24 -130 -33 -116 -35 -250 -4 -281
40 -39 79 5 120 133 22 73 53 105 84 88 12 -6 33 -9 46 -6 21 6 24 3 24 -21 0
-68 -53 -261 -96 -348 -57 -116 -72 -184 -55 -258 13 -58 43 -107 65 -107 27
0 54 51 71 133 4 21 9 26 18 20 7 -5 34 -18 61 -27 37 -14 51 -26 62 -52 20
-48 18 -67 -12 -95 -62 -58 -103 -178 -104 -301 0 -104 34 -135 90 -80 l28 28
68 -23 c89 -30 124 -62 144 -135 8 -24 4 -34 -30 -73 -54 -63 -73 -119 -68
-204 2 -50 9 -75 22 -90 34 -38 75 -25 116 37 14 20 18 21 55 11 53 -15 113
-5 184 30 66 34 84 29 97 -23 6 -26 5 -28 -12 -21 -70 29 -132 7 -207 -74 -99
-108 -124 -202 -76 -295 13 -27 36 -58 50 -69 24 -17 29 -18 56 -4 16 9 55 45
87 81 32 36 61 66 65 66 14 0 67 -85 79 -126 7 -23 19 -47 27 -54 16 -13 -2
-29 -120 -106 -132 -86 -176 -176 -119 -243 45 -54 106 -35 179 53 20 25 44
46 52 46 20 0 143 -120 143 -139 0 -9 7 -27 16 -39 9 -13 14 -25 11 -28 -10
-11 -121 -45 -204 -63 -228 -49 -283 -130 -171 -245 36 -36 66 -58 93 -65 57
-15 149 -14 192 4 45 19 43 19 43 -10 0 -22 -4 -25 -37 -25 -100 -1 -240 -55
-287 -110 -37 -45 -33 -78 17 -146 113 -153 231 -200 333 -130 43 29 90 34
133 12 40 -21 101 -92 101 -119 l0 -22 -225 3 c-256 4 -323 -5 -355 -45 -29
-37 -25 -78 14 -158 82 -169 197 -200 332 -90 27 23 53 35 72 35 45 0 52 -16
38 -80 -12 -53 -13 -55 -77 -87 -52 -26 -85 -35 -169 -44 -144 -15 -145 -16
-145 -167 0 -99 3 -122 20 -151 41 -70 102 -62 241 31 41 27 78 47 83 44 4 -3
0 -36 -10 -73 -11 -37 -19 -86 -19 -108 0 -39 -1 -40 -58 -63 -93 -39 -152
-52 -227 -52 -83 0 -106 -12 -137 -73 -31 -61 -48 -133 -48 -204 0 -51 4 -67
24 -89 22 -26 26 -27 62 -16 22 6 77 42 123 80 l84 69 33 -21 c18 -12 33 -25
34 -30 1 -23 -115 -120 -177 -149 -56 -26 -83 -31 -168 -36 -64 -4 -108 -11
-118 -20 -13 -10 -17 -31 -17 -96 0 -80 -1 -84 -30 -108 -16 -14 -62 -37 -102
-52 -219 -83 -248 -115 -258 -285 -7 -114 -16 -139 -80 -225 -54 -71 -55 -83
-24 -187 22 -77 27 -114 28 -218 2 -158 12 -185 148 -392 57 -87 132 -203 168
-259 88 -138 149 -201 223 -228 118 -43 169 -16 118 64 -11 17 -63 80 -116
140 -180 206 -228 297 -227 435 2 208 90 384 229 457 32 17 121 50 198 73 363
108 556 189 651 272 59 52 67 77 59 189 l-7 99 86 0 86 0 47 52 c27 29 75 80
107 115 33 35 56 66 53 69 -4 4 3 18 13 32 11 13 20 31 20 38 0 7 24 46 54 88
29 41 56 86 60 100 3 14 20 47 37 75 26 42 31 57 26 91 -4 34 2 55 39 130 24
49 52 102 63 117 12 18 21 53 25 98 4 39 16 121 26 184 24 137 24 157 4 196
-23 44 -7 205 21 205 35 0 40 29 36 214 -3 191 -12 239 -49 250 -18 6 -21 18
-25 109 -3 56 -5 150 -5 208 0 93 -3 112 -25 155 -13 27 -27 65 -30 84 -9 56
-26 92 -47 97 -13 4 -25 23 -37 59 -14 46 -15 57 -3 79 12 22 12 32 1 58 -7
18 -30 84 -52 147 -22 63 -45 123 -51 135 -18 35 -61 75 -80 75 -22 0 -78 115
-78 160 0 26 -13 57 -95 237 -20 42 -44 79 -60 89 -38 25 -78 109 -72 150 4
24 -3 51 -29 104 -46 96 -102 180 -130 192 -14 7 -36 42 -63 102 -23 50 -41
97 -41 104 0 7 -4 20 -9 30 -6 9 -18 41 -27 71 -11 38 -30 68 -61 99 -48 48
-108 172 -99 205 9 35 -105 344 -133 362 -17 10 -65 178 -66 230 0 29 -10 70
-23 97 -12 26 -22 53 -22 60 0 8 -7 24 -16 37 -12 16 -13 25 -6 30 8 5 7 24
-2 66 -8 33 -17 121 -20 195 -9 177 -13 199 -41 210 -21 8 -23 18 -30 102 -4
51 -11 98 -15 103 -4 6 -10 71 -12 147 -3 105 -8 142 -21 162 -24 36 -22 64 5
68 14 2 24 13 29 30 11 42 11 275 0 296 -13 24 4 92 23 92 19 0 44 31 58 71 6
19 22 44 36 57 20 19 23 29 17 55 -24 104 -23 127 7 181 16 28 40 66 53 83 23
33 45 128 45 195 0 24 14 61 42 110 23 40 54 102 71 138 17 38 46 81 69 102
26 25 38 43 34 53 -3 10 9 39 29 71 20 30 49 97 65 148 28 88 52 126 78 126
21 0 13 15 -17 33 l-30 17 27 45 c15 24 35 46 45 48 22 7 56 82 57 126 0 22
15 58 45 106 25 40 45 77 44 81 -1 5 3 22 9 37 7 16 12 64 12 107 0 74 -3 84
-50 178 -48 97 -111 172 -144 172 -7 0 -26 -18 -41 -40 -15 -22 -30 -38 -32
-36 -2 2 -1 20 2 40 7 36 53 96 74 96 6 0 20 -18 31 -40 12 -23 31 -45 43 -49
36 -14 62 -51 97 -138 18 -46 35 -83 39 -83 3 0 21 25 39 55 l33 55 -2 123
c-3 112 -1 127 19 158 17 28 21 51 22 115 0 43 0 198 0 343 1 222 4 269 17
295 24 46 21 153 -6 208 -14 29 -21 63 -21 101 0 42 -4 59 -15 63 -11 4 -15
21 -15 56 0 39 6 57 25 80 30 36 30 40 4 98 -23 52 -53 86 -91 106 -38 20 -69
17 -119 -10z m-20 -692 c1 -1 1 -7 0 -13 -2 -5 -20 -1 -39 10 l-35 20 35 -7
c19 -3 37 -8 39 -10z m21 -284 c0 -13 -6 -16 -26 -12 -17 3 -33 -3 -51 -19
l-26 -24 7 40 c4 22 12 56 18 75 l11 34 33 -39 c19 -21 34 -46 34 -55z m-3
-192 c-3 -8 -6 -5 -6 6 -1 11 2 17 5 13 3 -3 4 -12 1 -19z m-60 -108 c14 -11
33 -20 42 -20 11 0 21 -14 27 -40 14 -49 7 -57 -18 -25 -36 46 -56 50 -90 18
l-30 -28 7 50 c10 74 18 80 62 45z m-95 -617 c10 -9 18 -28 18 -42 0 -15 6
-36 14 -47 12 -17 85 -189 103 -244 3 -8 -5 -2 -18 13 -13 15 -46 40 -74 55
-42 23 -51 32 -53 58 -2 24 3 36 23 52 55 44 1 87 -70 58 -21 -9 -40 -14 -42
-12 -3 3 2 17 11 33 8 15 23 43 32 61 20 36 30 39 56 15z m-117 -294 c-16 -29
-15 -33 19 -112 46 -109 66 -159 66 -163 0 -7 -53 28 -101 67 -35 28 -51 36
-72 32 -15 -3 -27 -2 -27 3 0 4 19 52 42 106 36 83 46 98 66 98 22 0 22 -1 7
-31z m-350 -298 c6 -10 -25 -31 -45 -31 -8 0 -8 6 0 20 11 21 35 27 45 11z
m129 -20 c3 -5 -1 -21 -8 -37 -19 -34 -9 -55 44 -92 33 -23 120 -152 103 -152
-3 0 -38 18 -78 40 -40 22 -82 40 -93 40 -23 0 -72 53 -72 78 0 46 22 91 53
110 37 24 44 25 51 13z m-217 -354 c20 -18 21 -22 9 -46 -35 -70 -19 -122 44
-136 21 -5 43 -25 80 -76 l50 -69 -68 37 c-37 20 -75 45 -85 55 -15 15 -28 17
-93 11 l-76 -6 7 34 c21 103 46 191 61 214 18 27 20 27 71 -18z m-169 -113
c-4 -26 -38 -29 -84 -8 l-39 17 47 7 c26 3 50 9 54 13 12 11 26 -9 22 -29z
m24 -290 c3 -3 -1 -27 -10 -53 -23 -73 -13 -95 60 -132 57 -29 97 -62 98 -83
0 -5 -10 -1 -22 8 -40 28 -117 66 -135 66 -10 0 -41 16 -70 36 -58 40 -58 31
-6 122 20 33 31 42 52 42 15 0 30 -3 33 -6z m-145 -46 c-8 -24 -12 -28 -15
-15 -5 23 4 47 17 47 6 0 5 -13 -2 -32z m-202 -127 c50 -52 24 -56 -37 -5 -23
20 -54 41 -66 47 -22 10 -22 12 -5 18 24 9 60 -11 108 -60z m161 -208 c20 -42
35 -131 22 -135 -4 -2 45 -43 109 -93 154 -119 153 -118 128 -110 -72 25 -133
37 -228 44 -150 11 -149 8 -109 159 32 121 48 172 56 172 2 0 12 -17 22 -37z
m-146 -530 c0 -32 6 -66 14 -75 17 -24 64 -40 95 -33 19 3 57 -12 146 -60
l120 -65 -95 5 c-52 3 -114 11 -136 16 -34 9 -47 8 -73 -6 -18 -9 -34 -22 -37
-29 -4 -12 -14 -12 -56 -1 -27 8 -52 16 -54 18 -7 7 59 287 68 287 4 0 8 -26
8 -57z m-52 -458 c27 -25 52 -57 56 -72 12 -54 38 -70 237 -143 107 -40 201
-76 209 -80 9 -5 -51 -9 -145 -9 -88 0 -175 -4 -194 -10 -25 -8 -49 -7 -95 4
-34 8 -81 18 -106 23 l-45 8 -8 59 c-15 110 4 265 32 265 5 0 31 -20 59 -45z
m-1 -506 c45 -28 156 -160 144 -172 -5 -5 -5 -22 0 -40 5 -17 8 -32 6 -33 -1
-1 -147 -11 -147 -9 0 0 -11 56 -25 125 -34 170 -35 164 22 129z m157 -544
c21 -19 46 -37 57 -40 10 -4 19 -10 19 -15 0 -5 14 -25 31 -45 22 -25 27 -35
16 -35 -9 0 -19 -4 -22 -10 -5 -8 22 -113 42 -166 8 -21 -46 -18 -111 7 -52
19 -56 23 -75 73 -27 72 -48 152 -56 208 -5 39 -3 47 12 51 38 10 50 6 87 -28z
m121 -545 c29 -28 182 -100 213 -100 23 0 3 -18 -29 -25 -34 -8 -34 -2 10
-115 16 -41 33 -74 38 -73 4 1 16 5 26 9 17 6 18 5 6 -15 -31 -49 -133 -12
-170 62 -54 105 -137 287 -131 287 3 0 20 -14 37 -30z m316 -556 c46 -7 72
-21 64 -34 -3 -4 15 -51 40 -104 30 -66 41 -98 32 -101 -34 -10 -76 -13 -106
-7 -33 7 -35 11 -82 137 -27 72 -49 133 -49 138 0 4 13 1 29 -7 16 -9 48 -18
72 -22z m111 -436 c55 -80 97 -108 157 -108 l47 0 29 -67 c17 -37 32 -71 33
-75 2 -4 -22 -8 -53 -8 -53 0 -59 3 -106 47 -28 26 -65 72 -83 103 -45 76 -87
170 -76 170 5 0 28 -28 52 -62z m357 -523 c13 -20 36 -43 51 -52 19 -11 41
-45 71 -111 40 -89 42 -96 28 -121 -27 -47 -45 -38 -68 34 -23 70 -56 130 -86
155 -10 8 -31 32 -46 54 -22 30 -26 42 -18 57 15 29 41 23 68 -16z m189 -524
c20 -10 46 -29 57 -41 11 -12 32 -28 46 -36 18 -9 30 -27 39 -59 11 -40 11
-51 -3 -81 -14 -29 -22 -34 -50 -34 -29 0 -97 17 -97 24 0 2 -9 52 -20 112
-28 153 -30 144 28 115z m126 -431 c17 -6 36 -30 55 -69 17 -32 41 -68 55 -78
19 -16 25 -30 27 -73 3 -51 2 -54 -29 -68 -17 -9 -34 -24 -38 -34 -3 -10 -12
-18 -21 -18 -33 0 -95 46 -124 92 l-31 48 16 63 c9 35 16 82 16 105 0 38 2 42
24 42 14 0 36 -4 50 -10z m53 -562 c6 -7 16 -35 23 -62 7 -26 24 -61 38 -77
22 -27 24 -35 17 -96 -6 -57 -11 -70 -41 -99 -33 -33 -35 -34 -67 -20 -74 31
-142 146 -151 259 l-6 77 43 0 c23 1 53 7 67 15 31 18 65 19 77 3z m-75 -565
c28 -31 58 -84 58 -105 0 -8 9 -31 20 -52 19 -38 19 -39 -1 -77 -16 -33 -24
-39 -52 -39 -18 0 -42 -7 -53 -15 -19 -13 -23 -12 -46 13 -42 45 -48 66 -48
171 0 92 2 101 22 115 34 24 71 20 100 -11z m-163 -505 c4 -13 11 -36 15 -52
6 -26 5 -28 -9 -16 -13 11 -25 2 -90 -66 l-74 -79 -20 25 c-36 45 -33 56 28
94 31 19 74 53 96 75 21 23 41 41 42 41 2 0 7 -10 12 -22z"/>
</g>
</svg>
